<svg width="302" height="51" viewBox="0 0 302 51" fill="none" xmlns="http://www.w3.org/2000/svg">
<path d="M14.4591 0.206249C12.7591 0.456249 10.0591 1.35625 8.25914 2.25625C-0.240864 6.60625 -1.79086 17.3062 5.25914 23.3062C7.25914 25.0562 9.65914 26.2062 17.4591 29.1562C25.2591 32.0562 27.5591 34.3562 26.2091 37.7062C25.0591 40.4562 23.5591 41.1562 18.7591 41.1562C13.9091 41.1562 12.5091 41.7562 12.0591 43.9562C11.7091 45.9562 12.5591 47.8562 14.3591 48.9562C15.6091 49.7062 16.8591 49.9062 20.4591 49.9062C24.5591 49.9062 25.3091 49.7562 28.3091 48.2562C33.2091 45.8562 35.6591 42.1562 35.7091 36.9562C35.7591 29.8062 32.1591 26.1562 20.2091 21.2062C11.0591 17.4062 9.30914 15.9062 10.4091 12.7062C11.2091 10.2062 13.1591 9.00625 16.7091 8.75625C20.2591 8.50625 23.1591 9.40625 26.0091 11.7062C27.0591 12.5062 28.3591 13.3062 29.0091 13.4562C30.3091 13.8062 32.9591 12.5562 33.4091 11.4062C35.8091 5.10625 25.0591 -1.24375 14.4591 0.206249Z" fill="#2B2D33"/>
<path d="M167.909 0.755871C166.809 1.25587 165.709 3.10587 165.709 4.45587C165.709 7.35587 168.959 9.55587 171.709 8.55587C173.209 8.05587 174.709 5.95587 174.709 4.45587C174.709 1.20587 171.009 -0.794129 167.909 0.755871Z" fill="#00C257"/>
<path d="M223.359 0.905469C220.009 3.25547 221.809 8.85547 225.959 8.85547C227.909 8.85547 229.109 7.95547 229.959 5.95547C231.159 3.10547 229.109 0.155469 225.959 0.155469C225.109 0.155469 223.959 0.505469 223.359 0.905469Z" fill="#00C257"/>
<path d="M40.6093 2.65515C38.1593 5.15515 38.6093 6.35515 46.6593 18.9552L53.7093 29.9552V37.6052C53.7093 46.1552 54.1093 47.7052 56.7593 48.6052C58.6093 49.2552 61.3093 48.3052 62.1593 46.7552C62.5093 46.1552 62.7093 42.5552 62.7093 37.9052V30.1052L66.3093 24.5552C69.1093 20.2052 69.8593 18.6052 69.8093 17.2552C69.7093 14.8552 68.5093 13.2552 66.5093 12.9052C64.0593 12.4052 62.0593 13.6552 60.1093 16.9052C59.2093 18.4052 58.3593 19.6552 58.1593 19.6552C58.0093 19.6552 55.4593 15.8052 52.5093 11.1552C49.5093 6.45515 46.6093 2.30515 46.0593 1.90515C44.3093 0.705154 42.3093 1.00515 40.6093 2.65515Z" fill="#2B2D33"/>
<path d="M70.7092 1.80577C67.9592 3.20577 67.6092 7.20577 70.0592 9.15577C71.9592 10.6058 74.0092 10.4558 75.8092 8.65577C77.1092 7.30577 77.3092 6.85578 77.0592 5.30577C76.8592 4.30577 76.3592 3.05577 75.8592 2.55577C74.6592 1.35577 72.2092 1.00577 70.7092 1.80577Z" fill="#00C257"/>
<path d="M114.859 2.35652L113.459 3.55652L113.309 24.3565C113.209 42.1565 113.309 45.3565 113.959 46.6065C114.859 48.3565 117.459 49.4065 119.259 48.7065C121.959 47.7065 121.959 47.8565 122.209 28.4565L122.459 10.4065L132.509 10.2565C142.309 10.1565 142.559 10.1065 143.659 8.95652C144.259 8.30652 144.859 7.00652 145.059 6.00652C145.309 4.45652 145.109 4.00652 143.809 2.65652L142.309 1.15652H129.259H116.259L114.859 2.35652Z" fill="#2B2D33"/>
<path d="M262.109 1.95533C259.759 3.20533 259.609 4.70533 259.809 26.2553L259.959 46.1553L261.309 47.4553C263.609 49.8053 267.659 49.0053 268.709 46.0053C269.009 45.0553 269.209 38.0053 269.209 27.3053V10.0553L275.859 10.2553C283.359 10.4553 285.759 11.2053 288.809 14.3553C293.159 18.8553 293.409 29.3553 289.259 34.5553C285.859 38.9053 285.459 40.5553 287.209 42.8053C289.359 45.5053 292.459 44.9553 295.859 41.2053C299.509 37.1553 301.359 31.7053 301.359 24.9053C301.359 17.3053 299.059 11.4553 294.409 7.20533C289.159 2.40533 284.609 1.15533 272.209 1.20533C265.459 1.20533 263.159 1.35533 262.109 1.95533Z" fill="#2B2D33"/>
<path d="M154.909 5.10704C152.859 6.35704 149.559 10.307 147.959 13.457C144.109 21.007 144.309 30.807 148.359 37.557C150.509 41.207 154.659 45.257 158.109 47.057C175.159 56.107 195.209 44.157 195.209 24.957C195.209 18.057 193.209 12.957 188.709 8.00704C185.509 4.50704 183.259 3.60704 180.909 4.90704C179.059 5.90704 177.959 8.05704 178.409 9.85704C178.559 10.507 179.409 11.707 180.259 12.507C183.859 15.807 186.209 20.907 186.209 25.457C186.209 30.557 182.309 36.707 177.559 39.057C170.909 42.357 163.609 41.207 158.859 36.007C156.359 33.307 155.559 31.757 154.709 28.257C153.509 23.007 154.959 18.157 159.209 13.507C160.509 12.057 161.709 10.407 161.959 9.75704C162.459 8.00704 161.359 5.85704 159.459 4.95704C157.359 3.95704 156.809 3.95704 154.909 5.10704Z" fill="#2B2D33"/>
<path d="M209.159 6.50689C205.859 9.60689 204.009 12.3069 202.359 16.5069C200.559 21.0569 200.459 28.8069 202.159 33.3569C206.659 45.8069 220.109 52.7569 232.809 49.2069C242.109 46.6569 249.109 38.6569 250.809 28.8069C251.609 24.0569 250.859 18.9069 248.809 14.4569C247.159 11.0069 242.959 6.05689 240.559 4.80689C237.659 3.30689 234.209 5.55689 234.209 8.95689C234.209 10.3069 234.759 11.2569 236.759 13.4569C240.359 17.4069 241.759 20.7069 241.759 25.1569C241.759 29.4569 240.309 33.0569 237.259 36.1069C227.109 46.2569 210.209 39.3069 210.209 24.9569C210.209 20.4569 211.359 17.5569 214.559 14.1069C217.909 10.5069 218.509 8.10689 216.659 6.00689C215.959 5.25689 214.659 4.55689 213.609 4.35689C211.909 4.10689 211.559 4.25689 209.159 6.50689Z" fill="#2B2D33"/>
<path d="M129.159 22.409C126.159 24.059 126.459 28.809 129.659 30.109C133.609 31.759 137.009 28.009 135.159 24.009C134.159 21.809 131.509 21.109 129.159 22.409Z" fill="#00C257"/>
<path d="M2.35925 35.4568C-0.340754 36.8068 -0.790754 40.1068 1.35925 42.5068C3.40925 44.8068 8.15925 43.4568 8.90925 40.4068C9.40925 38.5068 7.95925 35.8568 6.10925 35.2068C4.20925 34.5068 4.30925 34.5068 2.35925 35.4568Z" fill="#00C257"/>
<path d="M276.709 40.2084C274.559 41.0584 273.709 42.2084 273.709 44.2084C273.709 47.9584 277.109 49.9584 280.409 48.1584C283.459 46.5584 283.109 41.7084 279.909 40.3584C279.009 39.9584 278.159 39.6584 278.109 39.7084C278.009 39.7084 277.409 39.9584 276.709 40.2084Z" fill="#00C257"/>
</svg>
